<?xml version="1.0" encoding="UTF-8" standalone="no" ?>
<!DOCTYPE svg PUBLIC "-//W3C//DTD SVG 1.1//EN" "http://www.w3.org/Graphics/SVG/1.1/DTD/svg11.dtd">
<svg xmlns="http://www.w3.org/2000/svg" xmlns:xlink="http://www.w3.org/1999/xlink" version="1.1" width="1080" height="1080" viewBox="0 0 1080 1080" xml:space="preserve">
<desc>Created with Fabric.js 5.2.4</desc>
<defs>
</defs>
<g transform="matrix(1 0 0 1 540 540)" id="22445e82-8877-42ac-bce7-0a273d72d7c3"  >
<rect style="stroke: none; stroke-width: 1; stroke-dasharray: none; stroke-linecap: butt; stroke-dashoffset: 0; stroke-linejoin: miter; stroke-miterlimit: 4; fill: rgb(255,255,255); fill-rule: nonzero; opacity: 1; visibility: hidden;" vector-effect="non-scaling-stroke"  x="-540" y="-540" rx="0" ry="0" width="1080" height="1080" />
</g>
<g transform="matrix(1 0 0 1 540 540)" id="a25c3f9a-12aa-483d-8a98-0007744f321f"  >
</g>
<g transform="matrix(20.38 0 0 20.38 540 540)"  >
<g style=""   >
		<g transform="matrix(1 0 0 1 -0.29 -0.41)"  >
<rect style="stroke: rgb(0,0,0); stroke-opacity: 0.2; stroke-width: 1; stroke-dasharray: none; stroke-linecap: butt; stroke-dashoffset: 0; stroke-linejoin: miter; stroke-miterlimit: 4; fill: none; fill-rule: nonzero; opacity: 1;" vector-effect="non-scaling-stroke"  x="-25.5" y="-25.5" rx="25.5" ry="25.5" width="51" height="51" />
</g>
		<g transform="matrix(1 0 0 1 -0.16 -0.41)" clip-path="url(#CLIPPATH_3)"  >
<clipPath id="CLIPPATH_3" >
	<rect transform="matrix(1 0 0 1 -0.13 0)" id="clip0_1_551" x="-15" y="-15" rx="0" ry="0" width="30" height="30" />
</clipPath>
<path style="stroke: none; stroke-width: 1; stroke-dasharray: none; stroke-linecap: butt; stroke-dashoffset: 0; stroke-linejoin: miter; stroke-miterlimit: 4; fill: rgb(0,0,0); fill-rule: nonzero; opacity: 0.9;" vector-effect="non-scaling-stroke"  transform=" translate(-26.34, -26.09)" d="M 38.4467 34.4654 C 37.993 35.5135 37.456 36.4783 36.8338 37.3653 C 35.9857 38.5746 35.2913 39.4116 34.7561 39.8764 C 33.9265 40.6393 33.0377 41.03 32.0858 41.0523 C 31.4025 41.0523 30.5785 40.8578 29.6192 40.4634 C 28.6569 40.0708 27.7724 39.8764 26.9638 39.8764 C 26.1157 39.8764 25.206 40.0708 24.2331 40.4634 C 23.2587 40.8578 22.4737 41.0634 21.8736 41.0837 C 20.9608 41.1226 20.051 40.7208 19.1429 39.8764 C 18.5633 39.3708 17.8383 38.5042 16.9698 37.2764 C 16.038 35.9654 15.2719 34.445 14.6718 32.7118 C 14.029 30.8396 13.7068 29.0267 13.7068 27.2716 C 13.7068 25.2611 14.1412 23.527 15.0114 22.0739 C 15.6952 20.9068 16.605 19.986 17.7437 19.3101 C 18.8824 18.6342 20.1127 18.2898 21.4377 18.2678 C 22.1626 18.2678 23.1133 18.492 24.2948 18.9327 C 25.4729 19.3749 26.2294 19.5992 26.561 19.5992 C 26.809 19.5992 27.6493 19.337 29.0739 18.8142 C 30.4211 18.3294 31.5581 18.1287 32.4895 18.2078 C 35.0135 18.4115 36.9097 19.4064 38.1708 21.199 C 35.9135 22.5667 34.7969 24.4824 34.8191 26.9399 C 34.8394 28.8541 35.5339 30.447 36.8986 31.7118 C 37.5171 32.2988 38.2079 32.7525 38.9763 33.0747 C 38.8097 33.558 38.6338 34.021 38.4467 34.4654 Z M 32.658 11.6865 C 32.658 13.1868 32.1099 14.5877 31.0173 15.8843 C 29.6989 17.4257 28.1041 18.3165 26.3747 18.1759 C 26.3527 17.9959 26.3399 17.8065 26.3399 17.6074 C 26.3399 16.1671 26.9669 14.6256 28.0804 13.3653 C 28.6363 12.7272 29.3433 12.1966 30.2007 11.7733 C 31.0562 11.3564 31.8655 11.1258 32.6266 11.0863 C 32.6488 11.2869 32.658 11.4875 32.658 11.6865 L 32.658 11.6865 Z" stroke-linecap="round" />
</g>
</g>
</g>
</svg>