<?xml version="1.0" encoding="UTF-8" standalone="no" ?>
<!DOCTYPE svg PUBLIC "-//W3C//DTD SVG 1.1//EN" "http://www.w3.org/Graphics/SVG/1.1/DTD/svg11.dtd">
<svg xmlns="http://www.w3.org/2000/svg" xmlns:xlink="http://www.w3.org/1999/xlink" version="1.1" width="1080" height="1080" viewBox="0 0 1080 1080" xml:space="preserve">
<desc>Created with Fabric.js 5.2.4</desc>
<defs>
</defs>
<g transform="matrix(1 0 0 1 540 540)" id="1c4f3997-ee4a-4a00-b432-9f65f105776f"  >
<rect style="stroke: none; stroke-width: 1; stroke-dasharray: none; stroke-linecap: butt; stroke-dashoffset: 0; stroke-linejoin: miter; stroke-miterlimit: 4; fill: rgb(255,255,255); fill-rule: nonzero; opacity: 1; visibility: hidden;" vector-effect="non-scaling-stroke"  x="-540" y="-540" rx="0" ry="0" width="1080" height="1080" />
</g>
<g transform="matrix(1 0 0 1 540 540)" id="1c075a5a-2fcb-4c74-b04a-604b6760f6f3"  >
</g>
<g transform="matrix(20.38 0 0 20.38 540 540)"  >
<g style=""   >
		<g transform="matrix(1 0 0 1 -0.29 -0.41)"  >
<rect style="stroke: rgb(0,0,0); stroke-opacity: 0.2; stroke-width: 1; stroke-dasharray: none; stroke-linecap: butt; stroke-dashoffset: 0; stroke-linejoin: miter; stroke-miterlimit: 4; fill: none; fill-rule: nonzero; opacity: 1;" vector-effect="non-scaling-stroke"  x="-25.5" y="-25.5" rx="25.5" ry="25.5" width="51" height="51" />
</g>
		<g transform="matrix(1 0 0 1 -0.29 -0.47)" clip-path="url(#CLIPPATH_3)"  >
<clipPath id="CLIPPATH_3" >
	<rect transform="matrix(1 0 0 1 0 0.05)" id="clip0_1_549" x="-15" y="-15" rx="0" ry="0" width="30" height="30" />
</clipPath>
<path style="stroke: none; stroke-width: 1; stroke-dasharray: none; stroke-linecap: butt; stroke-dashoffset: 0; stroke-linejoin: miter; stroke-miterlimit: 4; fill: rgb(8,102,255); fill-rule: nonzero; opacity: 0.9;" vector-effect="non-scaling-stroke"  transform=" translate(-26.21, -26.03)" d="M 41.2068 26.0859 C 41.2068 17.8017 34.491 11.0859 26.2068 11.0859 C 17.9226 11.0859 11.2068 17.8017 11.2068 26.0859 C 11.2068 33.1203 16.05 39.0231 22.5834 40.6443 L 22.5834 30.6699 L 19.4904 30.6699 L 19.4904 26.0859 L 22.5834 26.0859 L 22.5834 24.1107 C 22.5834 19.0053 24.894 16.6389 29.9064 16.6389 C 30.8568 16.6389 32.4966 16.8255 33.1674 17.0115 L 33.1674 21.1665 C 32.8134 21.1293 32.1984 21.1107 31.4346 21.1107 C 28.9752 21.1107 28.0248 22.0425 28.0248 24.4647 L 28.0248 26.0859 L 32.9244 26.0859 L 32.0826 30.6699 L 28.0248 30.6699 L 28.0248 40.9761 C 35.4522 40.0791 41.2074 33.7551 41.2074 26.0859 L 41.2068 26.0859 Z" stroke-linecap="round" />
</g>
		<g transform="matrix(1 0 0 1 -0.17 2.36)" clip-path="url(#CLIPPATH_4)"  >
<clipPath id="CLIPPATH_4" >
	<rect transform="matrix(1 0 0 1 -0.12 -2.78)" id="clip0_1_549" x="-15" y="-15" rx="0" ry="0" width="30" height="30" />
</clipPath>
<path style="stroke: none; stroke-width: 1; stroke-dasharray: none; stroke-linecap: butt; stroke-dashoffset: 0; stroke-linejoin: miter; stroke-miterlimit: 4; fill: rgb(255,255,255); fill-rule: nonzero; opacity: 0.9;" vector-effect="non-scaling-stroke"  transform=" translate(-26.33, -28.86)" d="M 32.0819 30.6699 L 32.9237 26.0859 L 28.0241 26.0859 L 28.0241 24.4647 C 28.0241 22.0425 28.9745 21.1107 31.4339 21.1107 C 32.1977 21.1107 32.8127 21.1293 33.1667 21.1665 L 33.1667 17.0115 C 32.4959 16.8249 30.8561 16.6389 29.9057 16.6389 C 24.8933 16.6389 22.5827 19.0053 22.5827 24.1107 L 22.5827 26.0859 L 19.4897 26.0859 L 19.4897 30.6699 L 22.5827 30.6699 L 22.5827 40.6443 C 23.7431 40.9323 24.9569 41.0859 26.2061 41.0859 C 26.8211 41.0859 27.4277 41.0481 28.0235 40.9761 L 28.0235 30.6699 L 32.0813 30.6699 L 32.0819 30.6699 Z" stroke-linecap="round" />
</g>
</g>
</g>
</svg>