<?xml version="1.0" encoding="UTF-8" standalone="no" ?>
<!DOCTYPE svg PUBLIC "-//W3C//DTD SVG 1.1//EN" "http://www.w3.org/Graphics/SVG/1.1/DTD/svg11.dtd">
<svg xmlns="http://www.w3.org/2000/svg" xmlns:xlink="http://www.w3.org/1999/xlink" version="1.1" width="1080" height="1080" viewBox="0 0 1080 1080" xml:space="preserve">
<desc>Created with Fabric.js 5.2.4</desc>
<defs>
</defs>
<g transform="matrix(1 0 0 1 540 540)" id="4d8f5da2-e38b-467e-aec8-cbb78cab80fb"  >
<rect style="stroke: none; stroke-width: 1; stroke-dasharray: none; stroke-linecap: butt; stroke-dashoffset: 0; stroke-linejoin: miter; stroke-miterlimit: 4; fill: rgb(255,255,255); fill-rule: nonzero; opacity: 1; visibility: hidden;" vector-effect="non-scaling-stroke"  x="-540" y="-540" rx="0" ry="0" width="1080" height="1080" />
</g>
<g transform="matrix(1 0 0 1 540 540)" id="66c05083-c9e7-4270-b5d4-e89aa372e888"  >
</g>
<g transform="matrix(20.38 0 0 20.38 540 540)"  >
<g style=""   >
		<g transform="matrix(1 0 0 1 -0.29 -0.41)"  >
<rect style="stroke: rgb(0,0,0); stroke-opacity: 0.2; stroke-width: 1; stroke-dasharray: none; stroke-linecap: butt; stroke-dashoffset: 0; stroke-linejoin: miter; stroke-miterlimit: 4; fill: none; fill-rule: nonzero; opacity: 1;" vector-effect="non-scaling-stroke"  x="-25.5" y="-25.5" rx="25.5" ry="25.5" width="51" height="51" />
</g>
		<g transform="matrix(1 0 0 1 6.91 3.91)" clip-path="url(#CLIPPATH_3)"  >
<clipPath id="CLIPPATH_3" >
	<rect transform="matrix(1 0 0 1 -7.2 -4.32)" id="clip0_1_547" x="-15" y="-15" rx="0" ry="0" width="30" height="30" />
</clipPath>
<path style="stroke: none; stroke-width: 1; stroke-dasharray: none; stroke-linecap: butt; stroke-dashoffset: 0; stroke-linejoin: miter; stroke-miterlimit: 4; fill: rgb(66,133,244); fill-rule: nonzero; opacity: 0.9;" vector-effect="non-scaling-stroke"  transform=" translate(-33.41, -30.41)" d="M 26.2065 23.3586 L 26.2065 29.1677 L 34.2792 29.1677 C 33.9248 31.0359 32.861 32.6178 31.2656 33.6814 L 36.1337 37.4587 C 38.9701 34.8406 40.6065 30.9951 40.6065 26.427 C 40.6065 25.3634 40.511 24.3405 40.3337 23.3588 L 26.2065 23.3586 Z" stroke-linecap="round" />
</g>
		<g transform="matrix(1 0 0 1 -2.03 8.51)" clip-path="url(#CLIPPATH_4)"  >
<clipPath id="CLIPPATH_4" >
	<rect transform="matrix(1 0 0 1 1.73 -8.93)" id="clip0_1_547" x="-15" y="-15" rx="0" ry="0" width="30" height="30" />
</clipPath>
<path style="stroke: none; stroke-width: 1; stroke-dasharray: none; stroke-linecap: butt; stroke-dashoffset: 0; stroke-linejoin: miter; stroke-miterlimit: 4; fill: rgb(52,168,83); fill-rule: nonzero; opacity: 0.9;" vector-effect="non-scaling-stroke"  transform=" translate(-24.47, -35.01)" d="M 17.8001 28.9409 L 16.7021 29.7814 L 12.8157 32.8086 C 15.2838 37.704 20.3426 41.0859 26.2062 41.0859 C 30.2561 41.0859 33.6515 39.7495 36.1333 37.4587 L 31.2652 33.6814 C 29.9288 34.5814 28.2243 35.1269 26.2062 35.1269 C 22.3062 35.1269 18.9926 32.4951 17.8062 28.9496 L 17.8001 28.9409 Z" stroke-linecap="round" />
</g>
		<g transform="matrix(1 0 0 1 -11.99 -0.41)" clip-path="url(#CLIPPATH_5)"  >
<clipPath id="CLIPPATH_5" >
	<rect transform="matrix(1 0 0 1 11.7 0)" id="clip0_1_547" x="-15" y="-15" rx="0" ry="0" width="30" height="30" />
</clipPath>
<path style="stroke: none; stroke-width: 1; stroke-dasharray: none; stroke-linecap: butt; stroke-dashoffset: 0; stroke-linejoin: miter; stroke-miterlimit: 4; fill: rgb(251,188,5); fill-rule: nonzero; opacity: 0.9;" vector-effect="non-scaling-stroke"  transform=" translate(-14.51, -26.09)" d="M 12.8158 19.3632 C 11.7931 21.3813 11.2068 23.6586 11.2068 26.0858 C 11.2068 28.513 11.7931 30.7903 12.8158 32.8084 C 12.8158 32.822 17.8068 28.9357 17.8068 28.9357 C 17.5068 28.0357 17.3294 27.0812 17.3294 26.0856 C 17.3294 25.0901 17.5068 24.1356 17.8068 23.2356 L 12.8158 19.3632 Z" stroke-linecap="round" />
</g>
		<g transform="matrix(1 0 0 1 -1.97 -9.34)" clip-path="url(#CLIPPATH_6)"  >
<clipPath id="CLIPPATH_6" >
	<rect transform="matrix(1 0 0 1 1.68 8.92)" id="clip0_1_547" x="-15" y="-15" rx="0" ry="0" width="30" height="30" />
</clipPath>
<path style="stroke: none; stroke-width: 1; stroke-dasharray: none; stroke-linecap: butt; stroke-dashoffset: 0; stroke-linejoin: miter; stroke-miterlimit: 4; fill: rgb(234,67,53); fill-rule: nonzero; opacity: 0.9;" vector-effect="non-scaling-stroke"  transform=" translate(-24.53, -17.16)" d="M 26.2065 17.0587 C 28.4156 17.0587 30.3792 17.8223 31.9474 19.295 L 36.2428 14.9996 C 33.6382 12.5724 30.2565 11.0859 26.2065 11.0859 C 20.3429 11.0859 15.2838 14.4541 12.8157 19.3632 L 17.8065 23.236 C 18.9928 19.6905 22.3065 17.0587 26.2065 17.0587 Z" stroke-linecap="round" />
</g>
</g>
</g>
</svg>