<?xml version="1.0" encoding="UTF-8" standalone="no" ?>
<!DOCTYPE svg PUBLIC "-//W3C//DTD SVG 1.1//EN" "http://www.w3.org/Graphics/SVG/1.1/DTD/svg11.dtd">
<svg xmlns="http://www.w3.org/2000/svg" xmlns:xlink="http://www.w3.org/1999/xlink" version="1.1" width="1080" height="1080" viewBox="0 0 1080 1080" xml:space="preserve">
<desc>Created with Fabric.js 5.2.4</desc>
<defs>
</defs>
<rect x="0" y="0" width="100%" height="100%" fill="transparent"></rect>
<g transform="matrix(1 0 0 1 540 540)" id="4b84a10c-1bd0-4ef6-b217-2982d56d14b5"  >
<rect style="stroke: none; stroke-width: 1; stroke-dasharray: none; stroke-linecap: butt; stroke-dashoffset: 0; stroke-linejoin: miter; stroke-miterlimit: 4; fill: rgb(255,255,255); fill-rule: nonzero; opacity: 1; visibility: hidden;" vector-effect="non-scaling-stroke"  x="-540" y="-540" rx="0" ry="0" width="1080" height="1080" />
</g>
<g transform="matrix(1 0 0 1 540 540)" id="84446a86-226c-43aa-b889-9dee232558de"  >
</g>
<g transform="matrix(9.39 0 0 9.39 557.75 468.99)"  >
<g style=""   >
		<g transform="matrix(1 0 0 1 -36.79 0.03)"  >
<path style="stroke: none; stroke-width: 1; stroke-dasharray: none; stroke-linecap: butt; stroke-dashoffset: 0; stroke-linejoin: miter; stroke-miterlimit: 4; fill: rgb(115,137,93); fill-rule: nonzero; opacity: 1;" vector-effect="non-scaling-stroke"  transform=" translate(-20.71, -25.03)" d="M 0.270417 13.2953 L 1.06659 5.08378 L -7.14491 4.28761 L -7.94108 12.4991 L 0.270417 13.2953 Z M 9.23695 24.1872 L 8.44078 32.3987 L 8.44078 32.3987 L 9.23695 24.1872 Z M 11.7404 14.4074 L 12.5366 6.19589 L 12.5366 6.19589 L 11.7404 14.4074 Z M 0.967619 6.10509 L 1.76379 -2.1064 L -6.4477 -2.90257 L -7.24387 5.30892 L 0.967619 6.10509 Z M 15.7307 24.8168 L 16.527 16.6053 L 16.5269 16.6053 L 15.7307 24.8168 Z M 0.900096 6.80151 L -7.3114 6.00534 L -7.3114 6.00534 L 0.900096 6.80151 Z M 5.94388 6.58758 L 6.74005 -1.62391 L 5.94388 6.58758 Z M 20.7745 24.6029 L 28.986 25.3997 L 28.986 25.3991 L 20.7745 24.6029 Z M 13.5169 24.6022 L 21.7284 25.3984 L 22.5246 17.1869 L 14.3131 16.3907 L 13.5169 24.6022 Z M 1.51285 45.0387 L -6.69866 44.2428 L -7.49455 52.4539 L 0.716547 53.2502 L 1.51285 45.0387 Z M 2.62496 33.5687 L -5.58653 32.7726 L 2.62496 33.5687 Z M 12.4048 36.0722 L 4.19333 35.276 L 4.19333 35.276 L 12.4048 36.0722 Z M 1.99519 40.0625 L -6.2163 39.2663 L -6.21632 39.2665 L 1.99519 40.0625 Z M 20.0105 25.2318 L 20.8068 17.0203 L 20.8067 17.0203 L 20.0105 25.2318 Z M 20.2244 30.2756 L 12.013 29.4794 L 12.013 29.4794 L 20.2244 30.2756 Z M 2.20912 45.1062 L 1.41281 53.3177 L 1.41295 53.3177 L 2.20912 45.1062 Z M 32.7109 4.86282 L 40.9224 5.65899 L 41.7185 -2.5525 L 33.507 -3.34867 L 32.7109 4.86282 Z M 21.8189 13.8294 L 13.6074 13.0332 L 13.6074 13.0333 L 21.8189 13.8294 Z M 31.5988 16.3328 L 23.3873 15.5366 L 31.5988 16.3328 Z M 39.9011 5.55999 L 48.1126 6.35615 L 48.9088 -1.85533 L 40.6973 -2.65151 L 39.9011 5.55999 Z M 21.1894 20.3231 L 12.9779 19.5269 L 12.9779 19.527 L 21.1894 20.3231 Z M 39.2047 5.49246 L 40.0009 -2.71903 L 40.0009 -2.71903 L 39.2047 5.49246 Z M 39.4186 10.5362 L 47.6301 11.3324 L 47.6301 11.3324 L 39.4186 10.5362 Z M 21.4033 25.3669 L 20.6068 33.5784 L 20.6071 33.5784 L 21.4033 25.3669 Z M 41.1433 37.3035 L 40.3471 45.5149 L 48.5586 46.3111 L 49.3548 38.0996 L 41.1433 37.3035 Z M 32.1767 26.4115 L 31.3805 34.623 L 31.3806 34.623 L 32.1767 26.4115 Z M 29.6733 36.1913 L 30.4694 27.9799 L 30.4694 27.9799 L 29.6733 36.1913 Z M 40.4463 44.4936 L 39.6501 52.7051 L 47.8616 53.5013 L 48.6578 45.2898 L 40.4463 44.4936 Z M 25.6831 25.7819 L 24.8869 33.9934 L 24.887 33.9934 L 25.6831 25.7819 Z M 40.5138 43.7972 L 48.7253 44.5934 L 48.7253 44.5934 L 40.5138 43.7972 Z M 35.47 44.0111 L 36.2662 35.7996 L 36.2662 35.7996 L 35.47 44.0111 Z M 20.6394 25.9958 L 12.4279 25.1989 L 12.4279 25.1996 L 20.6394 25.9958 Z M -0.525752 21.5068 L 10.9442 22.6189 L 12.5366 6.19589 L 1.06659 5.08378 L -0.525752 21.5068 Z M 21.5031 17.0879 L 10.0331 15.9758 L 8.44078 32.3987 L 19.9108 33.5108 L 21.5031 17.0879 Z M 10.0331 15.9758 C 9.08443 15.8838 8.38993 15.0401 8.48191 14.0914 L -7.94108 12.4991 C -8.91248 22.518 -1.57807 31.4273 8.44078 32.3987 L 10.0331 15.9758 Z M 10.9442 22.6189 C 11.8929 22.7109 12.5874 23.5545 12.4955 24.5032 L 28.9184 26.0955 C 29.8898 16.0767 22.5554 7.16729 12.5366 6.19589 L 10.9442 22.6189 Z M 0.171449 14.3166 L 5.14771 14.7991 L 6.74005 -1.62391 L 1.76379 -2.1064 L 0.171449 14.3166 Z M 12.5631 23.8061 L 12.4955 24.5025 L 28.9184 26.0962 L 28.986 25.3997 L 12.5631 23.8061 Z M 21.5032 17.0879 L 16.527 16.6053 L 14.9345 33.0283 L 19.9107 33.5108 L 21.5032 17.0879 Z M 9.11159 7.59768 L 9.17911 6.90126 L -7.24387 5.30892 L -7.3114 6.00534 L 9.11159 7.59768 Z M 16.5269 16.6053 C 11.9918 16.1656 8.67188 12.1328 9.11159 7.59768 L -7.3114 6.00534 C -8.63053 19.6106 1.32933 31.7092 14.9346 33.0283 L 16.5269 16.6053 Z M 5.14771 14.7991 C 9.68279 15.2388 13.0027 19.2717 12.563 23.8067 L 28.986 25.3991 C 30.3052 11.7938 20.3453 -0.304776 6.74005 -1.62391 L 5.14771 14.7991 Z M 5.30544 23.806 L 4.19333 35.276 L 20.6163 36.8684 L 21.7284 25.3984 L 5.30544 23.806 Z M 9.72435 45.8349 L 10.8365 34.3649 L -5.58653 32.7726 L -6.69864 44.2426 L 9.72435 45.8349 Z M 10.8365 34.3649 C 10.9284 33.4162 11.7721 32.7217 12.7208 32.8137 L 14.3131 16.3907 C 4.29425 15.4193 -4.61512 22.7537 -5.58653 32.7726 L 10.8365 34.3649 Z M 4.19333 35.276 C 4.10135 36.2247 3.25771 36.9192 2.30902 36.8272 L 0.716685 53.2502 C 10.7355 54.2216 19.6449 46.8872 20.6163 36.8684 L 4.19333 35.276 Z M 12.4955 24.5032 L 12.013 29.4794 L 28.4359 31.0718 L 28.9184 26.0955 L 12.4955 24.5032 Z M 3.00543 36.8948 L 2.30916 36.8272 L 0.716547 53.2502 L 1.41281 53.3177 L 3.00543 36.8948 Z M 9.72437 45.8347 L 10.2067 40.8584 L -6.21632 39.2665 L -6.69866 44.2428 L 9.72437 45.8347 Z M 19.2142 33.4433 L 19.9106 33.5108 L 21.5032 17.0879 L 20.8068 17.0203 L 19.2142 33.4433 Z M 10.2067 40.8586 C 10.6464 36.3236 14.6793 33.0036 19.2143 33.4433 L 20.8067 17.0203 C 7.20144 15.7012 -4.89716 25.6611 -6.2163 39.2663 L 10.2067 40.8586 Z M 12.013 29.4794 C 11.5732 34.0145 7.54037 37.3345 3.00529 36.8948 L 1.41295 53.3177 C 15.0182 54.6369 27.1168 44.677 28.4359 31.0718 L 12.013 29.4794 Z M 24.4994 4.06665 L 23.3873 15.5366 L 39.8103 17.129 L 40.9224 5.65899 L 24.4994 4.06665 Z M 28.9184 26.0954 L 30.0304 14.6254 L 13.6074 13.0333 L 12.4954 24.5033 L 28.9184 26.0954 Z M 30.0304 14.6255 C 30.1224 13.6768 30.966 12.9823 31.9147 13.0743 L 33.507 -3.34867 C 23.4882 -4.32008 14.5788 3.01433 13.6074 13.0332 L 30.0304 14.6255 Z M 23.3873 15.5366 C 23.2953 16.4855 22.4517 17.1798 21.5031 17.0879 L 19.9108 33.5108 C 29.9298 34.4823 38.8389 27.1477 39.8103 17.129 L 23.3873 15.5366 Z M 31.6896 4.76382 L 31.2071 9.74008 L 47.6301 11.3324 L 48.1126 6.35615 L 31.6896 4.76382 Z M 22.1998 17.1554 L 21.5034 17.0879 L 19.9105 33.5108 L 20.6068 33.5784 L 22.1998 17.1554 Z M 28.9184 26.0954 L 29.4009 21.1192 L 12.9779 19.527 L 12.4954 24.5033 L 28.9184 26.0954 Z M 38.4085 13.704 L 39.1049 13.7715 L 40.6973 -2.65151 L 40.0009 -2.71903 L 38.4085 13.704 Z M 29.4009 21.1193 C 29.8406 16.5842 33.8734 13.2642 38.4085 13.704 L 40.0009 -2.71903 C 26.3956 -4.03817 14.297 5.9217 12.9779 19.5269 L 29.4009 21.1193 Z M 31.2071 9.74007 C 30.7674 14.2752 26.7345 17.5951 22.1995 17.1554 L 20.6071 33.5784 C 34.2124 34.8975 46.311 24.9377 47.6301 11.3324 L 31.2071 9.74007 Z M 41.9394 29.092 L 30.4694 27.9799 L 28.8771 44.4028 L 40.3471 45.5149 L 41.9394 29.092 Z M 19.9107 33.5108 L 31.3805 34.623 L 32.9729 18.2 L 21.5031 17.0879 L 19.9107 33.5108 Z M 31.3806 34.623 C 32.3293 34.715 33.0238 35.5586 32.9318 36.5073 L 49.3548 38.0996 C 50.3262 28.0808 42.9918 19.1714 32.9729 18.2 L 31.3806 34.623 Z M 30.4694 27.9799 C 29.521 27.8879 28.8264 27.0445 28.9184 26.0955 L 12.4955 24.5032 C 11.5241 34.5218 18.858 43.4314 28.8771 44.4028 L 30.4694 27.9799 Z M 41.2424 36.2821 L 36.2662 35.7996 L 34.6738 52.2226 L 39.6501 52.7051 L 41.2424 36.2821 Z M 28.8508 26.7927 L 28.9184 26.0962 L 12.4955 24.5025 L 12.4279 25.1989 L 28.8508 26.7927 Z M 19.9107 33.5108 L 24.8869 33.9934 L 26.4794 17.5704 L 21.5032 17.0879 L 19.9107 33.5108 Z M 32.3023 43.001 L 32.2348 43.6974 L 48.6578 45.2898 L 48.7253 44.5934 L 32.3023 43.001 Z M 24.887 33.9934 C 29.4221 34.4331 32.742 38.4659 32.3023 43.001 L 48.7253 44.5934 C 50.0444 30.9881 40.0846 18.8895 26.4793 17.5704 L 24.887 33.9934 Z M 36.2662 35.7996 C 31.7311 35.3599 28.4111 31.327 28.8508 26.792 L 12.4279 25.1996 C 11.1087 38.8049 21.0686 50.9035 34.6738 52.2226 L 36.2662 35.7996 Z" stroke-linecap="round" />
</g>
		<g transform="matrix(1 0 0 1 28.7 0.94)"  >
<path style="stroke: none; stroke-width: 1; stroke-dasharray: none; stroke-linecap: butt; stroke-dashoffset: 0; stroke-linejoin: miter; stroke-miterlimit: 4; fill: rgb(2,13,25); fill-rule: nonzero; opacity: 0.9;" vector-effect="non-scaling-stroke"  transform=" translate(-86.2, -25.94)" d="M 69.5104 36.46 L 67.2304 36.42 C 66.9104 36.42 66.5904 36.42 66.2704 36.42 L 58.9904 36.78 C 58.5904 36.78 58.3904 36.6467 58.3904 36.38 C 58.3904 36.3 58.4304 36.1133 58.5104 35.82 C 58.7771 35.2067 58.9638 33.26 59.0704 29.98 C 59.2038 26.7 59.2704 23.7133 59.2704 21.02 C 59.2704 18.3 59.2171 16.1 59.1104 14.42 C 58.9504 11.8867 58.6838 10.3667 58.3104 9.86 C 58.0171 9.48667 57.8704 9.24667 57.8704 9.14 C 57.8704 8.71333 58.5904 8.34 60.0304 8.02 C 61.4704 7.7 62.4971 7.54 63.1104 7.54 C 63.7504 7.54 64.1504 7.58 64.3104 7.66 C 64.4704 7.71333 64.5504 7.84667 64.5504 8.06 C 64.5504 8.27333 64.4971 8.95333 64.3904 10.1 C 64.1238 13.4867 63.9904 17.4333 63.9904 21.94 C 63.9904 26.42 64.0971 30.0067 64.3104 32.7 C 64.3104 32.9933 64.5638 33.2467 65.0704 33.46 C 65.5771 33.6733 66.2038 33.78 66.9504 33.78 C 69.5638 33.78 70.8704 31.7667 70.8704 27.74 C 70.8704 26.62 70.8038 25.9267 70.6704 25.66 C 70.5638 25.3933 70.5104 25.22 70.5104 25.14 C 70.5104 24.8733 70.6971 24.74 71.0704 24.74 C 71.3638 24.74 71.7504 24.8867 72.2304 25.18 C 72.7371 25.4733 73.1504 25.8467 73.4704 26.3 C 73.7904 26.7267 74.0838 27.42 74.3504 28.38 C 74.6171 29.3133 74.7504 30.42 74.7504 31.7 C 74.7504 34.8733 74.3638 36.46 73.5904 36.46 C 72.2304 36.46 70.8704 36.46 69.5104 36.46 Z M 80.042 26.34 L 80.082 27.34 C 80.082 27.5 80.1887 27.58 80.402 27.58 C 81.2553 27.5 82.002 27.2867 82.642 26.94 C 83.282 26.5667 83.762 26.1533 84.082 25.7 C 84.722 24.7133 85.0687 23.86 85.122 23.14 L 85.162 22.66 C 85.162 21.22 84.5887 20.5 83.442 20.5 C 82.5887 20.5 81.8953 20.8733 81.362 21.62 C 80.482 22.7933 80.042 24.3667 80.042 26.34 Z M 88.762 31.66 C 88.762 32.6733 88.5487 33.5667 88.122 34.34 C 87.722 35.0867 87.2553 35.6467 86.722 36.02 C 86.2153 36.3667 85.6153 36.6467 84.922 36.86 C 84.042 37.1267 83.202 37.26 82.402 37.26 C 80.162 37.26 78.5087 36.42 77.442 34.74 C 76.3753 33.06 75.842 30.9267 75.842 28.34 C 75.842 25.7267 76.4953 23.4067 77.802 21.38 C 79.1353 19.3533 81.122 18.34 83.762 18.34 C 86.162 18.34 87.7887 19.18 88.642 20.86 C 88.9887 21.5 89.162 22.1133 89.162 22.7 C 89.162 23.26 89.1353 23.7133 89.082 24.06 C 89.0287 24.38 88.842 24.8733 88.522 25.54 C 88.202 26.2067 87.7753 26.8067 87.242 27.34 C 86.7087 27.8733 85.8687 28.38 84.722 28.86 C 83.5753 29.34 82.2287 29.66 80.682 29.82 C 80.4687 29.82 80.362 29.9133 80.362 30.1 C 80.362 30.34 80.442 30.7 80.602 31.18 C 80.7887 31.6333 80.9887 32.02 81.202 32.34 C 81.7887 33.0867 82.6553 33.46 83.802 33.46 C 84.9487 33.46 85.922 33.0867 86.722 32.34 C 87.1487 31.94 87.4953 31.4467 87.762 30.86 C 87.8687 30.6467 88.002 30.54 88.162 30.54 C 88.3487 30.54 88.4953 30.6867 88.602 30.98 C 88.7087 31.2733 88.762 31.5 88.762 31.66 Z M 103.782 24.5 L 103.702 29.62 C 103.702 33.1667 104.088 35.3 104.862 36.02 C 104.968 36.1267 105.022 36.2467 105.022 36.38 C 105.022 36.78 104.155 36.98 102.422 36.98 C 100.715 36.98 99.8083 36.4733 99.7017 35.46 C 99.675 35.22 99.6617 34.7267 99.6617 33.98 L 99.8217 27.58 C 99.8217 27.3933 99.715 27.3 99.5017 27.3 C 98.2217 27.3 97.0217 27.66 95.9017 28.38 C 94.7817 29.1 94.2217 30.02 94.2217 31.14 C 94.2217 31.7267 94.3817 32.22 94.7017 32.62 C 95.0217 33.02 95.4083 33.22 95.8617 33.22 C 96.3417 33.22 96.7283 33.1267 97.0217 32.94 C 97.3417 32.7533 97.5283 32.6467 97.5817 32.62 C 98.035 32.6733 98.2617 33.1533 98.2617 34.06 C 98.2617 34.94 97.8483 35.66 97.0217 36.22 C 96.195 36.7533 95.3283 37.02 94.4217 37.02 C 93.515 37.02 92.7283 36.86 92.0617 36.54 C 91.4217 36.22 90.955 35.86 90.6617 35.46 C 90.3683 35.06 90.1283 34.6067 89.9417 34.1 C 89.755 33.4867 89.6617 32.9533 89.6617 32.5 C 89.6617 30.6333 90.2483 29.14 91.4217 28.02 C 92.595 26.9 94.1017 26.1 95.9417 25.62 C 98.3683 25.14 99.635 24.7 99.7417 24.3 C 99.8217 24.0067 99.8617 23.5133 99.8617 22.82 C 99.8617 21.4067 99.1417 20.7 97.7017 20.7 C 97.0883 20.7 96.5417 20.9 96.0617 21.3 C 95.5817 21.6733 95.3417 22.1533 95.3417 22.74 L 95.5817 23.7 C 95.5283 24.1533 95.0483 24.42 94.1417 24.5 L 93.7017 24.54 C 92.9017 24.54 92.2617 24.34 91.7817 23.94 C 91.3283 23.54 91.1017 23.0067 91.1017 22.34 C 91.1017 21.9133 91.235 21.4467 91.5017 20.94 C 91.795 20.4067 92.155 19.98 92.5817 19.66 C 93.0083 19.34 93.6617 19.06 94.5417 18.82 C 95.4483 18.5533 96.315 18.42 97.1417 18.42 C 97.9683 18.42 98.6083 18.4467 99.0617 18.5 C 99.515 18.5533 100.128 18.6867 100.902 18.9 C 101.702 19.0867 102.355 19.46 102.862 20.02 C 103.395 20.58 103.675 21.18 103.702 21.82 C 103.755 22.4333 103.782 23.3267 103.782 24.5 Z M 111.403 26.5 L 111.603 34.5 C 111.603 36.18 111.376 37.66 110.923 38.94 C 110.496 40.2467 109.963 41.22 109.323 41.86 C 108.016 43.22 106.87 43.9933 105.883 44.18 L 105.203 44.34 C 104.803 44.34 104.603 44.22 104.603 43.98 L 104.803 43.38 C 106.75 40.6867 107.723 34.0733 107.723 23.54 C 107.723 22.58 107.71 21.86 107.683 21.38 C 107.123 21.38 106.563 21.42 106.003 21.5 L 105.963 21.5 C 105.67 21.5 105.523 21.3533 105.523 21.06 L 105.643 19.54 C 105.67 19.3 105.856 19.18 106.203 19.18 L 107.643 19.18 L 107.643 16.5 L 107.723 12.7 C 107.723 12.5133 107.75 12.3133 107.803 12.1 C 107.883 11.86 108.176 11.5133 108.683 11.06 C 109.19 10.58 109.936 10.1533 110.923 9.78 C 111.91 9.38 112.75 9.18 113.443 9.18 C 114.163 9.18 114.523 9.39333 114.523 9.82 C 114.523 9.98 114.403 10.1133 114.163 10.22 C 113.39 10.46 112.75 11.1533 112.243 12.3 C 111.763 13.42 111.523 15.34 111.523 18.06 L 111.523 19.18 C 112.883 19.1267 113.776 19.06 114.203 18.98 C 114.39 18.98 114.483 19.14 114.483 19.46 C 114.483 19.78 114.336 20.18 114.043 20.66 C 113.776 21.1133 113.43 21.3533 113.003 21.38 C 112.603 21.38 112.096 21.3667 111.483 21.34 C 111.43 23.3667 111.403 25.0867 111.403 26.5 Z" stroke-linecap="round" />
</g>
</g>
</g>
</svg>